<?xml version="1.0" encoding="UTF-8"?>
<svg id="Capa_2" data-name="Capa 2" xmlns="http://www.w3.org/2000/svg" viewBox="0 0 1866.28 1183.99">
  <defs>
    <style>
      .cls-1 {
        fill: #4b976f;
      }

      .cls-1, .cls-2, .cls-3, .cls-4, .cls-5 {
        stroke-width: 0px;
      }

      .cls-2 {
        fill: #81c287;
      }

      .cls-3 {
        fill: #54a87c;
      }

      .cls-4 {
        fill: #b1d6a7;
      }

      .cls-5 {
        fill: #1c8466;
      }
    </style>
  </defs>
  <g id="Capa_1-2" data-name="Capa 1">
    <g>
      <polygon class="cls-2" points="1866.28 393.55 1288.25 0 0 536.95 0 571.55 18.56 584.14 0 591.88 0 626.49 18.56 639.08 0 646.82 0 681.42 18.56 694.02 0 701.75 0 736.36 18.56 748.95 0 756.68 0 791.3 578.95 1183.99 1866.28 648.69 1866.28 613.29 1848.46 601.16 1866.28 593.75 1866.28 558.36 1848.46 546.23 1866.28 538.82 1866.28 503.42 1848.46 491.29 1866.28 483.88 1866.28 448.49 1848.46 436.36 1866.28 428.95 1866.28 393.55"/>
      <g>
        <polygon class="cls-1" points="0 756.68 0 791.3 578.95 1183.99 578.95 1148.59 0 756.68"/>
        <polygon class="cls-2" points="578.95 1183.99 1866.28 648.69 1866.28 613.29 578.95 1148.59 578.95 1183.99"/>
        <polygon class="cls-3" points="18.56 748.95 0 756.68 578.95 1148.59 1866.28 613.29 1848.46 601.16 578.95 1129.05 18.56 748.95"/>
        <polygon class="cls-1" points="578.95 1093.66 0 701.75 0 736.36 18.56 748.95 578.95 1129.05 578.95 1093.66"/>
        <polygon class="cls-2" points="578.95 1129.05 1848.46 601.16 1866.28 593.75 1866.28 558.36 578.95 1093.66 578.95 1129.05"/>
        <polygon class="cls-3" points="18.56 694.02 0 701.75 578.95 1093.66 1866.28 558.36 1848.46 546.23 578.95 1074.13 18.56 694.02"/>
        <polygon class="cls-1" points="578.95 1038.73 0 646.82 0 681.42 18.56 694.02 578.95 1074.13 578.95 1038.73"/>
        <polygon class="cls-2" points="578.95 1074.13 1848.46 546.23 1866.28 538.82 1866.28 503.42 578.95 1038.73 578.95 1074.13"/>
        <polygon class="cls-3" points="18.56 639.08 0 646.82 578.95 1038.73 1866.28 503.42 1848.46 491.29 578.95 1019.19 18.56 639.08"/>
        <polygon class="cls-1" points="578.95 983.79 0 591.88 0 626.49 18.56 639.08 578.95 1019.19 578.95 983.79"/>
        <polygon class="cls-2" points="578.95 1019.19 1848.46 491.29 1866.28 483.88 1866.28 448.49 578.95 983.79 578.95 1019.19"/>
        <polygon class="cls-3" points="18.56 584.14 0 591.88 578.95 983.79 1866.28 448.49 1848.46 436.36 578.95 964.25 18.56 584.14"/>
        <polygon class="cls-1" points="578.95 928.86 0 536.95 0 571.55 18.56 584.14 578.95 964.25 578.95 928.86"/>
        <polygon class="cls-2" points="1866.28 393.55 578.95 928.86 578.95 964.25 1848.46 436.36 1866.28 428.95 1866.28 393.55"/>
        <path class="cls-3" d="m1866.28,393.55L1288.25,0,0,536.95l578.95,391.91L1866.28,393.55Zm-1340.59,425.25l-334.66-228.79c9.07-12.09,16.28-25.59,15.22-41.05-.89-13.18-8.33-25.44-16.72-36.57L1203.71,88.63c22.94,16.18,48.35,27.01,76.8,27.58,17.58.35,34.32-4.44,49.77-12.12l328.95,226.06c-20.72,26.18-7.1,56.26,17.52,76.1l-1040.65,433.97c-25.83-33.42-72.43-39.43-110.41-21.43Z"/>
        <path class="cls-2" d="m636.1,840.23l1040.65-433.97c-24.62-19.84-38.24-49.92-17.52-76.1l-328.95-226.06c-15.46,7.68-32.2,12.47-49.77,12.12-28.45-.57-53.87-11.39-76.8-27.58L189.53,512.39c8.39,11.13,15.84,23.38,16.72,36.57,1.06,15.46-6.15,28.96-15.22,41.05l334.66,228.79c37.98-18,84.58-11.99,110.41,21.43Zm721.16-575.27c42.21,0,76.43,18.99,76.43,42.41s-34.22,42.41-76.43,42.41-76.43-18.99-76.43-42.41,34.22-42.41,76.43-42.41Zm-409.09,27.09c157.35,0,284.92,70.8,284.92,158.1s-127.57,158.12-284.92,158.12-284.93-70.79-284.93-158.12,127.57-158.1,284.93-158.1Zm-445.65,329.63c0-23.41,34.22-42.41,76.43-42.41s76.43,18.99,76.43,42.41-34.22,42.42-76.43,42.42-76.43-18.99-76.43-42.42Z"/>
        <path class="cls-3" d="m948.17,608.26c157.35,0,284.92-70.79,284.92-158.12s-127.57-158.1-284.92-158.1-284.93,70.8-284.93,158.1,127.57,158.12,284.93,158.12Z"/>
        <path class="cls-3" d="m655.38,621.67c0-23.41-34.22-42.41-76.43-42.41s-76.43,18.99-76.43,42.41,34.22,42.42,76.43,42.42,76.43-18.99,76.43-42.42Z"/>
        <path class="cls-3" d="m1357.27,349.78c42.21,0,76.43-18.99,76.43-42.41s-34.22-42.41-76.43-42.41-76.43,18.99-76.43,42.41,34.22,42.41,76.43,42.41Z"/>
        <path class="cls-5" d="m926.55,370.7c-16.74-5.05-36.11-1.59-51.9,5.24-11.84,5.13-23.52,11.27-32.97,20.22-3.32,3.15-6.49,6.24-8.88,10.16l-2.16,4.21c-.31,1.57-.96,5.3-.84,2.43-.1,2.45-1.15,1.46,1.77,4.3,1.52,1.48,2.62,2.4,3.86,3.07.95-.96,1.92-1.91,2.92-2.85,9.44-8.95,21.12-15.09,32.96-20.21,15.8-6.84,35.17-10.3,51.9-5.25,18.91,5.7,30.66-14.32,25.24-28.28-4.62,6.15-12.36,9.85-21.91,6.98Z"/>
        <path class="cls-5" d="m1106.03,497.04c.68.43,1.24.97,1.85,1.47,2.66-6.63,4.37-13.52,4.84-20.52-2.95,5.19-6.71,10.49-10.77,16.46,1.36.86,2.72,1.73,4.08,2.59Z"/>
        <path class="cls-5" d="m787.06,396.42c1.3.82,2.66,1.55,3.99,2.33,1.08-3.48,2.51-6.97,4.41-10.46,1.4-2.57,2.96-5.07,4.63-7.52-3.24-1.86-6.51-3.68-9.68-5.66-9.57-5.98-12.38-19.11-6.36-28.57,2.86-4.5,7.26-7.43,12.09-8.72l-.06-.07c-23.07,5.22-22.56,24.12-22.56,24.12l4.08,18.32c.41,6.43,3.72,12.63,9.48,16.24Z"/>
        <path class="cls-5" d="m1077.63,458.47c-2.87-10.42-12.99-17.33-22.3-21.8-24.75-11.88-51.43-8.67-76.36.09-28.45,10-59.44,12.72-88.66,20.48-24.16,6.41-57.03,13-78.98-3.32-13.33-9.91-21.25-23.08-22.37-37.42-8.61,22.2-.74,44.05,19.02,58.73,21.97,16.32,54.82,9.73,78.99,3.32,29.22-7.75,59.59-18.85,89.46-23.09,23.44-3.33,85.18-19.49,94.61,14.63.32,1.17.47,2.33.55,3.49,4.75-3.81,7.89-8.34,6.03-15.11Z"/>
        <path class="cls-5" d="m1083.81,531.98c-3.95-2.52-7.91-5.03-11.87-7.55-55.25,38.73-132.68,37.58-182.51-10.52-1.72-1.67-3.04-3.41-4-5.19-6.46,7.1-8.32,17.82.67,26.5,49.82,48.09,127.26,49.24,182.5,10.52,3.96,2.52,7.91,5.03,11.87,7.55,5.16,3.28,15.39,4.58,24.94-.72,4.96-2.75,13.7-9.29,13.04-14l-3.05-21.64h-.05c-.33,3.02-1.25,6-2.96,8.69-6.05,9.51-19.06,12.41-28.57,6.36Z"/>
        <path class="cls-4" d="m784.04,346.53c-6.02,9.47-3.2,22.59,6.36,28.57,3.18,1.99,6.45,3.8,9.68,5.66-1.66,2.45-3.23,4.95-4.63,7.52-1.9,3.49-3.33,6.98-4.41,10.46-1.86,6.02-2.53,11.98-2.08,17.75,1.11,14.34,9.04,27.51,22.37,37.42,21.96,16.32,54.82,9.73,78.98,3.32,29.21-7.76,60.2-10.48,88.66-20.48,24.93-8.76,51.61-11.97,76.36-.09,9.3,4.47,19.43,11.38,22.3,21.8,1.86,6.77-1.27,11.3-6.03,15.11-5.21,4.19-12.39,7.52-17.14,12-22.5,21.23-57.01,29.41-87.09,23.85-17.77-3.29-34.54-11.09-47.58-23.68-17.4-16.8-44.23,4.91-34.36,22.97.97,1.78,2.28,3.52,4,5.19,49.82,48.09,127.26,49.24,182.51,10.52,3.96,2.52,7.92,5.03,11.87,7.55,9.51,6.05,22.52,3.16,28.57-6.36,1.71-2.69,2.63-5.66,2.96-8.68.77-6.88-1.93-13.92-7.47-18.43-.61-.5-1.17-1.04-1.85-1.47-1.36-.86-2.72-1.73-4.08-2.59,4.06-5.98,7.82-11.28,10.77-16.46,5.9-10.37,8.52-20.29,3.5-34.24-10.94-30.4-41.46-47.52-71.76-53.58-60.26-12.06-116.67,15.95-173.45,29.24-9.62,2.25-21.67,4.52-30.86,2.48-2.08-.46-3.47-.88-4.72-1.56-1.23-.67-2.34-1.59-3.86-3.07-2.93-2.84-1.87-1.85-1.77-4.3-.12,2.87.54-.86.84-2.43l2.16-4.21c2.39-3.92,5.57-7.01,8.88-10.16,9.45-8.95,21.12-15.09,32.97-20.22,15.8-6.83,35.16-10.29,51.9-5.24,9.55,2.87,17.28-.82,21.91-6.98,7.77-10.34,6.74-27.63-9.28-32.46-33.42-10.07-76.44-1.2-108.35,19.97-1.79-1.26-3.6-2.49-5.51-3.64-4.2-2.53-8.55-4.81-12.71-7.41-5.06-3.17-11.05-3.82-16.48-2.37-4.83,1.29-9.23,4.22-12.09,8.72Z"/>
      </g>
    </g>
  </g>
</svg>